<svg xmlns="http://www.w3.org/2000/svg" viewBox="0 0 64 64">
  <defs>
    <linearGradient id="revhireGradient" x1="8" y1="6" x2="56" y2="58" gradientUnits="userSpaceOnUse">
      <stop offset="0" stop-color="#2563eb"/>
      <stop offset="1" stop-color="#14b8a6"/>
    </linearGradient>
  </defs>
  <rect x="6" y="6" width="52" height="52" rx="16" fill="url(#revhireGradient)"/>
  <path d="M22 20h20a8 8 0 0 1 8 8v16a4 4 0 0 1-4 4H18a4 4 0 0 1-4-4V28a8 8 0 0 1 8-8Z" fill="#eff6ff"/>
  <path d="M25 20a7 7 0 0 1 14 0v3h-4v-3a3 3 0 1 0-6 0v3h-4v-3Z" fill="#dbeafe"/>
  <path d="M20 30h24v4H20z" fill="#bfdbfe"/>
  <circle cx="32" cy="39" r="5" fill="#2563eb"/>
</svg>
